<svg width="61" height="62" viewBox="0 0 61 62" fill="none" xmlns="http://www.w3.org/2000/svg">
<g id="icons8-sun 1">
<path id="Vector" d="M30.9013 7.2467C29.7174 7.2467 28.9282 8.0519 28.9282 9.25969V11.2727C28.9282 12.4805 29.7174 13.2857 30.9013 13.2857C32.0852 13.2857 32.8745 12.4805 32.8745 11.2727V9.25969C32.8745 8.0519 32.0852 7.2467 30.9013 7.2467ZM15.5093 13.6867C15.016 13.6867 14.5243 13.8896 14.1297 14.2922C13.3404 15.0974 13.3404 16.3059 14.1297 17.1111L15.5093 18.5186C16.2986 19.3238 17.4832 19.3238 18.2725 18.5186C19.0617 17.7134 19.0617 16.5049 18.2725 15.6997L16.8928 14.2922C16.4982 13.8896 16.0026 13.6867 15.5093 13.6867ZM46.2933 13.6867C45.8 13.6867 45.3044 13.8896 44.9098 14.2922L43.5302 15.6997C42.7409 16.5049 42.7409 17.7134 43.5302 18.5186C44.3194 19.3238 45.5041 19.3238 46.2933 18.5186L47.673 17.1111C48.4622 16.3059 48.4622 15.0974 47.673 14.2922C47.2784 13.8896 46.7866 13.6867 46.2933 13.6867ZM30.9013 17.3116C27.2382 17.3116 23.725 18.7962 21.1348 21.4388C18.5446 24.0813 17.0894 27.6654 17.0894 31.4025C17.0894 35.1397 18.5446 38.7238 21.1348 41.3663C23.725 44.0089 27.2382 45.4935 30.9013 45.4935C34.5645 45.4935 38.0776 44.0089 40.6679 41.3663C43.2581 38.7238 44.7133 35.1397 44.7133 31.4025C44.7133 27.6654 43.2581 24.0813 40.6679 21.4388C38.0776 18.7962 34.5645 17.3116 30.9013 17.3116ZM9.19683 29.3896C8.01295 29.3896 7.22369 30.1948 7.22369 31.4025C7.22369 32.6103 8.01295 33.4155 9.19683 33.4155H11.17C12.3538 33.4155 13.1431 32.6103 13.1431 31.4025C13.1431 30.1948 12.3538 29.3896 11.17 29.3896H9.19683ZM50.6327 29.3896C49.4488 29.3896 48.6595 30.1948 48.6595 31.4025C48.6595 32.6103 49.4488 33.4155 50.6327 33.4155H52.6058C53.7897 33.4155 54.579 32.6103 54.579 31.4025C54.579 30.1948 53.7897 29.3896 52.6058 29.3896H50.6327ZM16.8928 43.681C16.3995 43.681 15.904 43.8839 15.5093 44.2864L14.1297 45.694C13.3404 46.4992 13.3404 47.7077 14.1297 48.5129C14.9189 49.3181 16.1036 49.3181 16.8928 48.5129L18.2725 47.1054C19.0617 46.3002 19.0617 45.0916 18.2725 44.2864C17.8779 43.8839 17.3861 43.681 16.8928 43.681ZM44.9098 43.681C44.4165 43.681 43.9248 43.8839 43.5302 44.2864C42.7409 45.0916 42.7409 46.3002 43.5302 47.1054L44.9098 48.5129C45.6991 49.3181 46.8837 49.3181 47.673 48.5129C48.4622 47.7077 48.4622 46.4992 47.673 45.694L46.2933 44.2864C45.8987 43.8839 45.4031 43.681 44.9098 43.681ZM30.9013 49.5194C29.7174 49.5194 28.9282 50.3246 28.9282 51.5324V53.5454C28.9282 54.7532 29.7174 55.5584 30.9013 55.5584C32.0852 55.5584 32.8745 54.7532 32.8745 53.5454V51.5324C32.8745 50.3246 32.0852 49.5194 30.9013 49.5194Z" fill="white"/>
</g>
</svg>
