<svg width="1440" height="320" viewBox="0 0 1440 320" fill="none" xmlns="http://www.w3.org/2000/svg">
<g id="wave (1) 1">
<path id="Vector" d="M0 160L40 149.3C80 139 160 117 240 138.7C320 160 400 224 480 256C560 288 640 288 720 272C800 256 880 224 960 192C1040 160 1120 128 1200 144C1280 160 1360 224 1400 256L1440 288V320H1400C1360 320 1280 320 1200 320C1120 320 1040 320 960 320C880 320 800 320 720 320C640 320 560 320 480 320C400 320 320 320 240 320C160 320 80 320 40 320H0V160Z" fill="#0099FF"/>
</g>
</svg>
